<svg width="566" height="302" viewBox="0 0 566 302" fill="none" xmlns="http://www.w3.org/2000/svg">
<g clip-path="url(#clip0_20_264)">
<path d="M377.805 301.311C396.176 296.705 412.659 291.999 432.489 283.068C452.94 273.856 543.789 230.017 555.603 154.144C558.698 133.35 556.13 112.264 548.074 92.3434C544.422 83.7569 536.848 66.5115 517.731 49.4564C494.329 28.566 467.626 20.4691 451.968 15.8903C419.024 6.25202 391.394 6.75977 378.235 7.10432C364.035 7.47607 338.972 8.31024 310.482 18.293C291.896 24.8032 280.342 32.229 263.317 43.3271C236.342 60.9262 232.792 68.2523 185.604 104.593C172.648 114.567 161.999 122.428 145.742 130.171C134.47 135.539 125.358 138.54 108.547 144.016C67.2263 157.481 55.4614 160.207 41.9403 167.787C15.6442 182.539 17.3474 198.627 16.2169 202.091C13.277 210.948 12.5964 220.191 14.2158 229.265C17.6639 247.462 29.885 259.358 37.4708 266.557C47.8834 276.349 60.5012 284.482 74.6652 290.53C84.498 294.691 94.6827 298.294 105.144 301.311H377.805Z" fill="#EFEDEF"/>
<path d="M308.772 12.2555C338.444 1.8645 364.547 0.987853 379.347 0.60206C393.044 0.245037 421.826 -0.281974 456.15 9.75835C472.459 14.529 500.27 22.9629 524.649 44.7187C544.555 62.4831 552.445 80.4488 556.247 89.3903C564.635 110.14 567.31 132.102 564.088 153.762C551.789 232.797 457.155 278.456 435.854 288.054" stroke="#6A8D99" stroke-miterlimit="10"/>
<path d="M391.074 300.867H352.15L347.028 252.912H396.195L391.074 300.867Z" fill="#FFE3CB"/>
<path d="M352.149 300.867C355.171 292.816 358.311 284.797 361.469 276.782C363.026 272.769 364.66 268.776 366.258 264.773L371.074 252.772C371.111 252.681 371.183 252.601 371.279 252.545C371.376 252.489 371.492 252.458 371.611 252.458C371.731 252.458 371.847 252.489 371.944 252.545C372.04 252.601 372.112 252.681 372.148 252.772L376.966 264.773C378.562 268.776 380.199 272.768 381.756 276.781L386.471 288.809L391.073 300.866L385.944 288.947L380.929 276.997C379.242 273.018 377.635 269.018 375.988 265.028L371.074 253.052H372.148L367.234 265.028C365.588 269.018 363.978 273.017 362.292 276.997C358.962 284.967 355.615 292.932 352.149 300.867Z" fill="#904D24"/>
<path d="M347.028 252.912C351.341 260.833 355.539 268.792 359.72 276.757L365.94 288.721L372.134 300.694H371.089L377.281 288.721C379.355 284.733 381.389 280.732 383.501 276.757L389.793 264.816L396.195 252.912L390.305 264.985L384.305 277.022C382.32 281.039 380.257 285.03 378.233 289.035L372.134 301.039C372.091 301.122 372.019 301.193 371.926 301.243C371.833 301.293 371.723 301.32 371.611 301.32C371.499 301.32 371.39 301.293 371.297 301.243C371.204 301.193 371.131 301.122 371.089 301.039L364.99 289.034L358.919 277.021C354.906 269.001 350.909 260.976 347.028 252.912Z" fill="#904D24"/>
<path d="M349.588 279.354C353.259 279.167 356.929 279.079 360.6 279.007C364.27 278.924 367.941 278.912 371.611 278.901C375.281 278.911 378.952 278.923 382.622 279.005L388.128 279.132C389.963 279.207 391.799 279.251 393.634 279.354C391.799 279.457 389.963 279.501 388.128 279.576L382.622 279.703C378.952 279.785 375.281 279.797 371.611 279.807C367.941 279.796 364.27 279.784 360.6 279.701C356.929 279.629 353.259 279.541 349.588 279.354Z" fill="#904D24"/>
<path d="M396.875 248.578H346.348C345.542 248.578 344.889 249.102 344.889 249.748V251.742C344.889 252.388 345.542 252.912 346.348 252.912H396.875C397.681 252.912 398.334 252.388 398.334 251.742V249.748C398.334 249.102 397.681 248.578 396.875 248.578Z" fill="#904D24"/>
<path d="M262.441 12.9734H253.255C250.493 12.9734 248.254 14.7689 248.254 16.9837V24.3509C248.254 26.5658 250.493 28.3613 253.255 28.3613H262.441C265.202 28.3613 267.441 26.5658 267.441 24.3509V16.9837C267.441 14.7689 265.202 12.9734 262.441 12.9734Z" fill="#DC8758"/>
<path d="M205.742 301.093H197.971L229.467 187.556L245.332 190.981L205.742 301.093Z" fill="#DC8758"/>
<path d="M310.901 301.093H318.671L287.177 187.556L271.311 190.981L310.901 301.093Z" fill="#DC8758"/>
<path d="M388.607 22.0572H126.578C124.737 22.0572 123.245 23.2542 123.245 24.7308V200.477C123.245 201.954 124.737 203.151 126.578 203.151H388.607C390.448 203.151 391.94 201.954 391.94 200.477V24.7308C391.94 23.2542 390.448 22.0572 388.607 22.0572Z" fill="#FFE3CB"/>
<path d="M280.769 54.6139C280.455 54.6136 280.153 54.5157 279.927 54.3407C279.701 54.1657 279.568 53.9273 279.557 53.6755C279.546 53.4237 279.656 53.1783 279.866 52.9906C280.076 52.803 280.368 52.6878 280.681 52.6694L302.942 51.3567C303.101 51.3473 303.26 51.3632 303.412 51.4033C303.563 51.4435 303.703 51.5071 303.824 51.5906C303.944 51.6742 304.043 51.7759 304.115 51.8901C304.186 52.0043 304.229 52.1287 304.241 52.2562C304.253 52.3837 304.233 52.5118 304.183 52.6332C304.133 52.7545 304.054 52.8668 303.949 52.9636C303.845 53.0604 303.718 53.1397 303.576 53.1972C303.434 53.2546 303.278 53.289 303.119 53.2984L280.859 54.611C280.829 54.6129 280.798 54.6139 280.769 54.6139Z" fill="#904D24"/>
<path d="M303.031 59.6144H280.77C280.448 59.6144 280.139 59.5119 279.912 59.3293C279.684 59.1467 279.556 58.899 279.556 58.6408C279.556 58.3825 279.684 58.1349 279.912 57.9523C280.139 57.7697 280.448 57.6671 280.77 57.6671H303.031C303.353 57.6671 303.662 57.7697 303.889 57.9523C304.117 58.1349 304.245 58.3825 304.245 58.6408C304.245 58.899 304.117 59.1467 303.889 59.3293C303.662 59.5119 303.353 59.6144 303.031 59.6144Z" fill="#904D24"/>
<path d="M303.031 65.9272H280.77C280.448 65.9272 280.139 65.8247 279.912 65.6421C279.684 65.4595 279.556 65.2118 279.556 64.9536C279.556 64.6953 279.684 64.4477 279.912 64.2651C280.139 64.0825 280.448 63.9799 280.77 63.9799H303.031C303.353 63.9799 303.662 64.0825 303.889 64.2651C304.117 64.4477 304.245 64.6953 304.245 64.9536C304.245 65.2118 304.117 65.4595 303.889 65.6421C303.662 65.8247 303.353 65.9272 303.031 65.9272Z" fill="#904D24"/>
<path d="M303.031 70.1699H280.77C280.448 70.1699 280.139 70.0673 279.912 69.8847C279.684 69.7021 279.556 69.4545 279.556 69.1962C279.556 68.938 279.684 68.6903 279.912 68.5077C280.139 68.3251 280.448 68.2226 280.77 68.2226H303.031C303.353 68.2226 303.662 68.3251 303.889 68.5077C304.117 68.6903 304.245 68.938 304.245 69.1962C304.245 69.4545 304.117 69.7021 303.889 69.8847C303.662 70.0673 303.353 70.1699 303.031 70.1699Z" fill="#904D24"/>
<path d="M175.239 175.028C174.917 175.028 174.609 174.925 174.381 174.743C174.153 174.56 174.025 174.312 174.025 174.054V52.3275C174.025 52.0693 174.153 51.8216 174.381 51.639C174.609 51.4564 174.917 51.3539 175.239 51.3539C175.561 51.3539 175.87 51.4564 176.098 51.639C176.326 51.8216 176.453 52.0693 176.453 52.3275V174.054C176.453 174.312 176.326 174.56 176.098 174.743C175.87 174.925 175.561 175.028 175.239 175.028Z" fill="#904D24"/>
<path d="M366.269 154.52H148.916C148.594 154.52 148.285 154.417 148.058 154.234C147.83 154.052 147.702 153.804 147.702 153.546C147.702 153.288 147.83 153.04 148.058 152.858C148.285 152.675 148.594 152.572 148.916 152.572H366.269C366.59 152.572 366.899 152.675 367.127 152.858C367.355 153.04 367.483 153.288 367.483 153.546C367.483 153.804 367.355 154.052 367.127 154.234C366.899 154.417 366.59 154.52 366.269 154.52Z" fill="#904D24"/>
<path d="M186.519 142.682C186.3 142.682 186.085 142.634 185.897 142.543C185.708 142.453 185.554 142.323 185.451 142.168C185.347 142.013 185.298 141.838 185.308 141.662C185.318 141.486 185.388 141.316 185.509 141.17L207.32 114.838C207.44 114.697 207.605 114.582 207.796 114.506C207.988 114.431 208.201 114.396 208.415 114.406C208.629 114.418 208.835 114.475 209.013 114.571C209.19 114.668 209.333 114.8 209.426 114.955L220.386 133.24L250.114 85.5914C250.222 85.4138 250.395 85.2673 250.611 85.1718C250.827 85.0763 251.074 85.0366 251.319 85.058C251.563 85.0773 251.795 85.1556 251.982 85.2826C252.17 85.4095 252.306 85.5792 252.37 85.7692L262.874 116.485L271.953 103.612C272.065 103.454 272.228 103.324 272.426 103.237C272.624 103.15 272.849 103.109 273.074 103.119C273.3 103.128 273.517 103.188 273.703 103.291C273.888 103.395 274.034 103.537 274.124 103.703L286.437 126.465L295.181 106.774C295.258 106.602 295.393 106.45 295.573 106.336C295.752 106.223 295.967 106.152 296.194 106.133C296.422 106.112 296.652 106.143 296.857 106.223C297.063 106.304 297.236 106.43 297.355 106.586L305.987 117.703L336.604 68.7598C336.71 68.59 336.876 68.4488 337.081 68.3536C337.286 68.2584 337.521 68.2133 337.758 68.224C337.994 68.2346 338.221 68.3005 338.412 68.4136C338.602 68.5266 338.747 68.6818 338.829 68.8601L344.662 81.5778L365.197 50.6958C365.272 50.583 365.374 50.4832 365.498 50.402C365.621 50.3208 365.763 50.2598 365.915 50.2226C366.068 50.1854 366.228 50.1726 366.387 50.1851C366.545 50.1975 366.699 50.2349 366.84 50.2951C366.981 50.3553 367.105 50.4371 367.206 50.5359C367.308 50.6346 367.384 50.7485 367.43 50.8708C367.477 50.9931 367.492 51.1216 367.477 51.2489C367.461 51.3761 367.415 51.4997 367.34 51.6125L345.529 84.4119C345.419 84.5776 345.251 84.7142 345.046 84.8052C344.842 84.8963 344.608 84.9378 344.375 84.9249C344.141 84.912 343.917 84.8452 343.73 84.7325C343.542 84.6198 343.399 84.466 343.319 84.2897L337.518 71.6423L307.187 120.129C307.091 120.283 306.944 120.414 306.763 120.509C306.582 120.603 306.373 120.657 306.158 120.665C305.943 120.67 305.73 120.631 305.539 120.551C305.349 120.47 305.188 120.352 305.072 120.207L296.624 109.328L287.691 129.444C287.609 129.628 287.46 129.788 287.264 129.903C287.067 130.018 286.831 130.084 286.588 130.09C286.344 130.097 286.104 130.044 285.898 129.94C285.692 129.835 285.53 129.684 285.433 129.504L272.867 106.272L263.538 119.498C263.42 119.666 263.242 119.802 263.027 119.888C262.812 119.975 262.57 120.009 262.332 119.985C262.093 119.961 261.869 119.881 261.687 119.755C261.505 119.629 261.374 119.462 261.31 119.277L250.867 88.7359L221.45 135.886C221.342 136.045 221.184 136.178 220.992 136.272C220.8 136.366 220.58 136.419 220.355 136.424C220.128 136.423 219.906 136.37 219.714 136.273C219.522 136.175 219.368 136.037 219.27 135.872L208.162 117.342L187.532 142.247C187.421 142.381 187.271 142.491 187.094 142.567C186.917 142.643 186.72 142.682 186.519 142.682Z" fill="#904D24"/>
<path d="M154.181 128.171C153.859 128.171 153.55 128.069 153.322 127.886C153.095 127.704 152.967 127.456 152.967 127.198V69.1962C152.967 68.938 153.095 68.6903 153.322 68.5077C153.55 68.3251 153.859 68.2226 154.181 68.2226C154.503 68.2226 154.812 68.3251 155.039 68.5077C155.267 68.6903 155.395 68.938 155.395 69.1962V127.198C155.395 127.456 155.267 127.704 155.039 127.886C154.812 128.069 154.503 128.171 154.181 128.171Z" fill="#904D24"/>
<path d="M318.888 169.751H318.87L205.306 168.468C204.984 168.464 204.677 168.358 204.452 168.173C204.228 167.988 204.104 167.739 204.109 167.48C204.118 167.223 204.252 166.979 204.482 166.8C204.712 166.621 205.02 166.521 205.34 166.521L318.905 167.804C319.225 167.807 319.531 167.912 319.755 168.096C319.98 168.28 320.104 168.527 320.102 168.784C320.1 169.041 319.971 169.287 319.744 169.468C319.516 169.649 319.209 169.751 318.888 169.751Z" fill="#904D24"/>
<path d="M300.454 196.413H216.101C214.674 196.413 213.518 197.341 213.518 198.485V204.143C213.518 205.287 214.674 206.214 216.101 206.214H300.454C301.881 206.214 303.037 205.287 303.037 204.143V198.485C303.037 197.341 301.881 196.413 300.454 196.413Z" fill="#DC8758"/>
<path d="M31.3021 217.841C34.0286 219.54 38.8322 223.575 38.9618 226.601C38.9618 226.601 47.7899 218.902 45.28 212.319C43.7932 209.858 41.3263 207.865 38.2694 206.655C38.2694 206.655 41.7312 205.098 45.3663 208.921C45.3663 208.921 44.0682 198.585 26.1094 202.337C26.1094 202.337 19.0988 190.868 5.20792 201.7C5.20792 201.7 14.5551 200.744 12.7376 203.08C9.35378 203.843 6.18667 205.125 3.41188 206.856C2.4812 207.517 1.72432 208.32 1.18558 209.219C0.646838 210.117 0.337066 211.093 0.274404 212.089C0.0581794 214.885 -0.273563 220.419 0.404415 220.495C1.31301 220.601 7.28506 216.248 11.3096 216.566C15.3342 216.885 2.092 226.442 2.092 226.442C2.092 226.442 4.81848 234.725 5.98698 234.619C7.15512 234.512 11.3963 232.141 9.66502 234.619L6.67929 236.53L10.574 240.848L20.354 237.379C20.354 237.379 16.0266 227.893 20.0078 230.477C20.0078 230.477 23.0368 233.698 23.0801 236.105C23.0801 236.105 36.1705 231.539 34.8725 228.406C33.4591 225.5 31.8062 222.672 29.9249 219.941C29.6094 219.479 29.4247 218.968 29.3839 218.442C29.3406 217.646 29.6001 216.779 31.3021 217.841ZM29.6938 206.844C30.92 206.166 33.9349 206.602 35.0672 208.814C36.279 211.18 36.2282 213.817 35.0024 214.495C33.7761 215.174 30.2925 214.289 29.4198 212C28.4534 209.452 28.4678 207.522 29.6938 206.844Z" fill="#8B9D36"/>
<path d="M26.1092 202.337C24.7132 203.611 23.4225 204.957 22.2456 206.366C21.1329 207.798 20.2149 209.323 19.5076 210.912C18.8058 212.507 18.2039 214.128 17.7042 215.771C17.1819 217.417 16.683 219.062 16.267 220.723C15.8263 222.379 15.4412 224.047 15.1259 225.72C14.8011 227.395 14.6143 229.079 14.3578 230.772C13.8602 234.173 12.5955 237.472 10.6255 240.51C11.4652 238.953 12.1582 237.347 12.6986 235.706C13.259 234.077 13.628 232.409 13.8007 230.724C14.1123 227.324 14.6982 223.943 15.5548 220.604C15.9951 218.935 16.5197 217.28 17.0638 215.637C17.5762 213.978 18.2184 212.347 18.9868 210.752C19.7666 209.156 20.7603 207.632 21.9504 206.207C23.2126 204.835 24.6028 203.541 26.1092 202.337Z" fill="#5E7C24"/>
<path d="M21.0113 207.733C19.5831 207.975 18.1787 208.299 16.8091 208.703C15.4434 209.102 14.0934 209.533 12.7833 210.039C10.1264 210.99 7.60629 212.16 5.03467 213.31C5.59615 212.928 6.18224 212.571 6.76352 212.206C7.37205 211.875 7.97126 211.529 8.59421 211.212C9.84693 210.584 11.1443 210.015 12.4796 209.508C13.8291 209.021 15.2194 208.609 16.6404 208.277C18.0602 207.939 19.5304 207.756 21.0113 207.733Z" fill="#5E7C24"/>
<path d="M15.0944 224.156C14.0886 224.781 13.0416 225.293 12.0191 225.828C11.5067 226.091 11.0063 226.364 10.5178 226.645C10.014 226.913 9.5898 227.267 9.27539 227.681C9.3444 227.153 9.6513 226.664 10.1384 226.305C10.5879 225.94 11.086 225.616 11.6237 225.338C12.6843 224.782 13.8595 224.382 15.0944 224.156Z" fill="#5E7C24"/>
<path d="M17.0996 216.592C18.2849 217.483 19.3903 218.439 20.4078 219.454C21.433 220.467 22.3836 221.528 23.2549 222.63C24.1214 223.741 24.8651 224.91 25.4773 226.125C26.109 227.337 26.4553 228.633 26.4987 229.946C26.1829 228.684 25.6665 227.459 24.9623 226.302C24.2851 225.139 23.5083 224.015 22.6372 222.938C21.821 221.831 20.8911 220.779 19.9639 219.725C19.0336 218.671 18.0729 217.632 17.0996 216.592Z" fill="#5E7C24"/>
<path d="M5.12109 249.768L8.75614 252.458C8.75614 252.458 12.3046 249.45 12.6941 251.538C12.6941 251.538 12.1315 253.627 11.4391 253.804C11.4391 253.804 20.1373 259.414 21.8899 254.795C22.5945 252.728 23.4839 250.706 24.5513 248.742C24.5513 248.742 26.4986 249.591 24.8109 256.281C24.8109 256.281 31.5425 254.695 34.0423 251.784C34.3294 251.441 34.4825 251.036 34.482 250.623C34.5061 248.959 34.7796 244.276 37.1441 246.034C37.1441 246.034 38.5073 246.565 37.4687 250.122C37.4687 250.122 42.9471 245.169 40.3449 242.125C39.8307 241.554 39.0859 241.144 38.2374 240.965C37.3888 240.785 36.4889 240.847 35.6907 241.14C34.1694 241.669 31.3466 242.645 26.1092 244.441C19.3665 246.804 12.3314 248.59 5.12109 249.768Z" fill="#8B9D36"/>
<path d="M17.0996 253.874C17.4364 252.344 18.0387 250.859 18.889 249.463C19.3087 248.754 19.8241 248.084 20.426 247.465C20.7327 247.151 21.0874 246.869 21.4818 246.625C21.8731 246.371 22.3609 246.231 22.8647 246.229C22.0053 246.527 21.3049 247.06 20.887 247.732C20.3932 248.374 19.9445 249.037 19.543 249.719C18.7074 251.082 17.963 252.485 17.0996 253.874Z" fill="#5E7C24"/>
<path d="M28.9221 251.68C28.8229 250.309 28.9782 248.935 29.383 247.601C29.5848 246.927 29.8695 246.272 30.2328 245.644C30.567 244.987 31.1742 244.443 31.9513 244.105C31.3894 244.592 30.9802 245.18 30.7575 245.819C30.5038 246.448 30.2858 247.089 30.0905 247.738C29.6964 249.038 29.3693 250.355 28.9221 251.68Z" fill="#5E7C24"/>
<path d="M89.4196 203.455C89.4196 203.455 80.6782 204.461 88.4676 209.416C88.4676 209.416 90.4582 210.761 96.9494 212.319C96.9494 212.319 101.017 198.13 89.4196 203.455Z" fill="#5E7C24"/>
<path d="M96.9492 212.319C96.7873 211.854 96.6813 211.389 96.5356 210.931C96.3536 210.481 96.2221 210.023 96.023 209.585C95.6485 208.707 95.1586 207.864 94.5614 207.07C93.953 206.288 93.2111 205.578 92.3575 204.961C91.4902 204.33 90.497 203.821 89.4194 203.455C90.6192 203.615 91.7511 204.011 92.7147 204.606C93.694 205.198 94.5295 205.928 95.1795 206.762C95.8069 207.599 96.2743 208.507 96.566 209.456C96.7246 209.923 96.7843 210.408 96.8848 210.88C96.9142 211.363 96.9506 211.842 96.9492 212.319Z" fill="#50661A"/>
<path d="M78.3261 174.789C78.3261 174.789 88.0173 169.837 90.92 180.832C90.92 180.832 85.8906 177.36 85.824 179.369C87.4531 180.898 88.6925 182.67 89.4722 184.582C89.924 186.007 89.6729 187.517 88.7712 188.797C87.5393 190.595 85.0503 194.127 84.6129 193.967C84.0272 193.753 82.6323 189.213 80.1123 188.171C77.5923 187.129 80.7324 197.134 80.7324 197.134C80.7324 197.134 75.1066 201.43 74.4715 201.005C73.8363 200.579 72.4949 197.803 72.3091 199.872L73.136 201.977L68.7493 203.455L64.6863 198.291C64.6863 198.291 71.8378 193.742 68.2427 194.118C68.2427 194.118 64.8977 195.182 63.703 196.661C63.703 196.661 58.2274 189.797 60.5121 188.255C62.7438 186.895 65.083 185.653 67.5151 184.536C68.0056 184.313 68.416 183.991 68.7067 183.604C69.0289 183.158 69.0917 182.684 67.743 182.803C65.3153 183.016 60.532 184.039 58.9856 185.875C58.9856 185.875 57.5369 178.382 62.2103 175.073C64.2461 174.016 66.6668 173.539 69.0816 173.721C69.0816 173.721 67.8035 171.688 63.8101 172.939C63.8101 172.939 69.5937 166.93 78.3261 174.789Z" fill="#5E7C24"/>
<path d="M82.6688 187.098C81.8778 185.552 81.1358 184.02 80.2337 182.559C79.7907 181.834 79.2659 181.144 78.6656 180.496C78.1018 179.821 77.2387 179.342 76.2515 179.158C76.7922 179.145 77.3297 179.231 77.8222 179.41C78.3147 179.59 78.749 179.858 79.0914 180.194C79.8106 180.823 80.4144 181.532 80.8845 182.297C81.8099 183.806 82.413 185.429 82.6688 187.098Z" fill="#50661A"/>
<path d="M62.7627 190.798C63.2567 189.939 63.8788 189.133 64.6152 188.395C65.3424 187.64 66.1872 186.963 67.1291 186.38C68.0755 185.779 69.1594 185.333 70.3197 185.066C71.4829 184.819 72.7112 184.851 73.8521 185.158C72.7135 185.08 71.5671 185.197 70.4892 185.501C69.4378 185.828 68.4541 186.281 67.5714 186.844C66.6652 187.401 65.8195 188.019 65.0434 188.692C64.2589 189.365 63.4878 190.059 62.7627 190.798Z" fill="#50661A"/>
<path d="M71.8504 175.789C72.2074 175.407 72.6559 175.085 73.1696 174.843C73.6833 174.601 74.2521 174.443 74.8426 174.379C75.4353 174.305 76.0374 174.292 76.6341 174.341C77.2288 174.395 77.8162 174.492 78.3893 174.631L78.6024 174.679L78.5154 174.855C77.3832 177.148 76.4214 179.504 75.4714 181.855C74.5419 184.213 73.7045 186.594 72.8847 188.978C72.0964 191.369 71.3586 193.771 70.6712 196.185C69.9798 198.597 69.3715 201.025 68.749 203.455C69.1294 200.994 69.5864 198.538 70.1854 196.103C70.7303 193.659 71.4699 191.246 72.2204 188.838C72.9775 186.429 73.8766 184.051 74.8446 181.692C75.8066 179.33 76.8846 177.003 78.1363 174.722L78.2622 174.946L77.4352 174.749C77.1538 174.706 76.874 174.65 76.591 174.612C76.0237 174.539 75.4469 174.524 74.8749 174.568C73.7077 174.646 72.6236 175.084 71.8504 175.789Z" fill="#50661A"/>
<path d="M74.8464 197.046C74.5647 196.198 74.1757 195.375 73.6855 194.591C73.4566 194.238 73.1135 193.942 72.6923 193.733C72.2055 193.558 71.674 193.479 71.1416 193.501C71.4056 193.376 71.6983 193.295 72.0022 193.262C72.3062 193.23 72.6152 193.247 72.9109 193.312C73.5126 193.492 74.0116 193.843 74.3145 194.297C74.8835 195.136 75.0715 196.108 74.8464 197.046Z" fill="#50661A"/>
<path d="M42.5105 253.874C42.5105 253.874 40.7876 249.105 36.4142 251.801C34.9275 252.749 33.8641 254.057 33.3834 255.53C32.5947 257.813 31.9129 261.95 33.8556 267.821C33.8556 267.821 38.3328 262.853 41.645 261.095C45.3804 259.113 47.79 254.582 42.5105 253.874Z" fill="#C4CE6E"/>
<path d="M42.5103 253.874C41.8526 254.264 41.2788 254.737 40.8117 255.276C40.3172 255.794 39.8696 256.34 39.4722 256.909C38.6625 258.044 37.9424 259.219 37.3163 260.426C36.6557 261.626 36.0861 262.857 35.5205 264.092L33.8555 267.821C33.9976 267.168 34.1858 266.523 34.3501 265.873C34.5402 265.228 34.7767 264.593 34.9883 263.951C35.448 262.676 36.03 261.431 36.6479 260.196C37.3121 258.972 38.0986 257.794 38.9996 256.671C39.8581 255.517 41.0655 254.555 42.5103 253.874Z" fill="#8B9D36"/>
<path d="M48.8223 187.618C48.8223 187.618 48.9682 182.645 43.7953 184.117C42.0256 184.646 40.5215 185.626 39.5138 186.908C37.9082 188.883 35.7102 192.65 35.3613 198.725C35.3613 198.725 41.4834 195.118 45.2946 194.275C49.5927 193.324 53.583 189.614 48.8223 187.618Z" fill="#8B9D36"/>
<path d="M48.8223 187.618C48.0505 187.823 47.3265 188.13 46.6797 188.526C46.0146 188.895 45.3836 189.303 44.7917 189.745C43.5954 190.623 42.4698 191.561 41.4217 192.554C40.3442 193.53 39.3412 194.559 38.3408 195.593L35.3613 198.726C35.7407 198.141 36.1608 197.575 36.5605 196.998C36.9824 196.432 37.4453 195.887 37.8867 195.33C38.8151 194.237 39.8114 193.183 40.8721 192.171C41.9629 191.172 43.1535 190.247 44.4322 189.403C45.6825 188.518 47.1935 187.904 48.8223 187.618Z" fill="#5E7C24"/>
<path d="M87.8646 253.874C87.8646 253.874 89.5874 249.105 93.9609 251.801C95.4475 252.749 96.511 254.057 96.9917 255.53C97.7804 257.813 98.4622 261.95 96.5195 267.821C96.5195 267.821 92.0423 262.853 88.7301 261.095C84.9947 259.113 82.5851 254.582 87.8646 253.874Z" fill="#8B9D36"/>
<path d="M87.8647 253.874C89.3095 254.555 90.5169 255.517 91.3754 256.671C92.2764 257.794 93.0629 258.972 93.7271 260.196C94.358 261.425 94.9119 262.678 95.3867 263.951C95.5983 264.593 95.8348 265.228 96.0248 265.873C96.1892 266.523 96.3774 267.168 96.5196 267.821L94.8545 264.092C94.2889 262.857 93.7193 261.626 93.0586 260.426C92.4325 259.219 91.7125 258.044 90.9028 256.909C90.5054 256.34 90.0577 255.794 89.5633 255.276C89.0962 254.737 88.5225 254.264 87.8647 253.874Z" fill="#5E7C24"/>
<path d="M89.4196 203.455C89.4196 203.455 67.644 188.532 62.001 275.714" stroke="#50661A" stroke-width="0.64428" stroke-miterlimit="10"/>
<path d="M68.749 203.455C68.749 203.455 57.916 260.954 64.4071 275.714" stroke="#50661A" stroke-width="0.64428" stroke-miterlimit="10"/>
<path d="M60.2771 275.714C60.2771 275.714 52.2265 249.803 42.5103 253.874" stroke="#50661A" stroke-width="0.64428" stroke-miterlimit="10"/>
<path d="M61.4339 267.987C61.4339 267.987 68.4502 171.721 48.8223 187.618" stroke="#50661A" stroke-width="0.64428" stroke-miterlimit="10"/>
<path d="M70.0981 275.714C70.0981 275.714 78.1488 249.803 87.865 253.874" stroke="#50661A" stroke-width="0.64428" stroke-miterlimit="10"/>
<path d="M39.7339 241.581C39.7339 241.581 54.9732 238.583 63.2819 275.112" stroke="#50661A" stroke-width="0.64428" stroke-miterlimit="10"/>
<path d="M44.7539 218.947C44.7539 218.947 49.1691 221.309 65.8756 275.112" stroke="#50661A" stroke-width="0.64428" stroke-miterlimit="10"/>
<path d="M86.485 231.154C86.485 231.154 69.9836 252.105 68.4502 275.714" stroke="#50661A" stroke-width="0.64428" stroke-miterlimit="10"/>
<path d="M42.5968 269.53V274.378C42.5914 274.823 42.8068 275.252 43.1957 275.57C43.5846 275.888 44.1151 276.07 44.6706 276.074H86.2206C86.7761 276.07 87.3066 275.888 87.6956 275.57C88.0845 275.252 88.2999 274.823 88.2945 274.378V269.91C88.2998 269.468 88.0875 269.042 87.7036 268.724C87.3197 268.407 86.7952 268.223 86.2439 268.214L44.6938 267.834C44.4168 267.834 44.1425 267.877 43.8867 267.963C43.6309 268.048 43.3988 268.173 43.2038 268.331C43.0087 268.489 42.8546 268.676 42.7505 268.882C42.6463 269.088 42.594 269.308 42.5968 269.53Z" fill="#9857BD"/>
<path d="M44.5801 276.074L46.0577 301.093H83.8558L86.3113 276.074H44.5801Z" fill="#CB97E7"/>
<path d="M79.6828 229.728C79.7406 227.445 85.626 231.586 85.626 231.586C82.1205 218.967 70.9198 224.23 70.9198 224.23C60.6781 214.956 54.0285 221.569 54.0285 221.569C58.6514 220.301 60.159 222.66 60.159 222.66C57.3991 222.349 54.5893 222.798 52.1891 223.935C46.8017 227.521 48.5688 236.099 48.5688 236.099C50.343 234.07 55.8964 233.091 58.7091 232.937C60.4763 232.843 60.1661 233.539 59.6903 234.07C59.3709 234.414 58.9593 234.696 58.4859 234.896C55.6732 236.072 52.9624 237.398 50.3719 238.866C47.7321 240.53 54.1799 248.547 54.1799 248.547C55.5502 246.913 59.4233 245.827 59.4233 245.827C63.5993 245.538 55.341 250.441 55.341 250.441L60.1227 256.47L65.2076 254.954L64.2195 252.529C64.4142 250.181 66.0011 253.391 66.7438 253.898C67.4866 254.411 73.9777 249.739 73.9777 249.739C73.9777 249.739 70.213 238.235 73.1483 239.521C76.0911 240.801 77.7642 246.016 78.4495 246.282C78.9615 246.482 81.8106 242.559 83.2242 240.559C83.7362 239.845 84.0673 239.057 84.1985 238.24C84.3297 237.423 84.2584 236.593 83.9887 235.798C83.0443 233.575 81.5832 231.515 79.6828 229.728ZM63.2602 229.634C61.3849 230.878 58.5 230.188 58.0386 229.262C57.5695 228.342 59.005 226.507 61.1542 225.339C63.1665 224.241 65.4817 225.061 65.9434 225.988C66.4121 226.908 65.3447 228.241 63.2602 229.634Z" fill="#5E7C24"/>
<path d="M70.9184 224.23C71.2917 225.605 71.5357 227 71.6486 228.405C71.6833 229.821 71.5263 231.236 71.1806 232.625C70.8283 234.007 70.3643 235.37 69.7915 236.705C69.2505 238.038 68.6903 239.374 68.0639 240.688C66.7872 243.309 65.2957 245.859 63.5994 248.321C62.7713 249.544 62.0886 250.828 61.5604 252.153C61.0092 253.481 60.5803 254.839 60.2773 256.216C60.5893 253.401 61.5461 250.655 63.0998 248.118C64.7106 245.639 66.1415 243.089 67.3855 240.478C68.0271 239.18 68.6024 237.864 69.1636 236.538C69.7291 235.215 70.2372 233.884 70.6348 232.533C71.0368 231.181 71.2577 229.798 71.2937 228.409C71.2769 227.011 71.1516 225.615 70.9184 224.23Z" fill="#50661A"/>
<path d="M71.4116 229.836C72.4373 230.39 73.3614 231.056 74.1571 231.815C74.9626 232.566 75.6927 233.367 76.3405 234.21C76.9842 235.053 77.5554 235.931 78.0501 236.836C78.5451 237.739 78.9545 238.67 79.2748 239.623L77.5399 237.037C76.9492 236.187 76.3634 235.338 75.7209 234.517C75.0896 233.691 74.4208 232.885 73.7145 232.098C73.0081 231.305 72.2389 230.55 71.4116 229.836Z" fill="#50661A"/>
<path d="M66.3223 243.32C67.082 243.912 67.6884 244.619 68.1067 245.4C68.3217 245.793 68.4793 246.205 68.5763 246.627C68.7048 247.062 68.6255 247.519 68.3538 247.91C68.3437 247.507 68.2325 247.111 68.027 246.744C67.8387 246.373 67.6449 246.004 67.4397 245.634C67.0053 244.883 66.632 244.11 66.3223 243.32Z" fill="#50661A"/>
<path d="M69.1607 237.378L65.4638 238.5C64.2431 238.884 63.0279 239.274 61.8454 239.716C60.6542 240.137 59.4958 240.615 58.3767 241.149C57.2453 241.674 56.1997 242.311 55.2642 243.043C56.0041 242.146 56.9552 241.373 58.0642 240.768C59.1558 240.149 60.3216 239.618 61.5443 239.184C63.9661 238.301 66.5295 237.693 69.1607 237.378Z" fill="#50661A"/>
<path d="M105.8 215.463C105.8 215.463 114.243 205.348 124.802 217.293C124.802 217.293 116.532 215.292 117.745 217.731C120.685 218.866 123.313 220.458 125.478 222.416C126.941 223.942 127.611 225.863 127.349 227.776C127.028 230.464 126.314 235.774 125.686 235.77C124.845 235.766 120.25 230.919 116.555 230.753C112.86 230.588 123.068 241.242 123.068 241.242C123.068 241.242 119.081 248.82 118.045 248.583C117.009 248.345 113.613 245.592 114.721 248.155L117.068 250.324L112.755 253.986L104.556 249.539C104.556 249.539 110.211 241.001 106.138 243C106.138 243 102.809 245.717 102.328 248.007C102.328 248.007 91.3396 242.128 93.0886 239.293C94.8884 236.705 96.8922 234.211 99.088 231.828C99.5304 231.352 99.8181 230.796 99.9252 230.208C100.035 229.525 99.8185 228.905 98.2572 229.637C95.4815 230.939 90.3995 234.225 89.7257 237.095C89.7257 237.095 83.165 228.727 86.6434 222.743C88.4007 220.603 90.9951 218.991 94.0189 218.162C94.0189 218.162 91.1773 216.274 87.19 219.494C87.19 219.494 90.2635 209.792 105.8 215.463Z" fill="#C4CE6E"/>
<path d="M105.8 215.463C107.276 218.51 108.496 221.632 109.452 224.809C110.442 227.98 111.209 231.196 111.809 234.43C112.392 237.667 112.77 240.925 112.941 244.193C113.117 247.458 113.055 250.728 112.755 253.987C112.723 250.722 112.703 247.465 112.381 244.217C112.125 240.969 111.694 237.735 111.089 234.514C110.552 231.288 109.778 228.091 108.909 224.912C108.034 221.733 107.025 218.575 105.8 215.463Z" fill="#8B9D36"/>
<path d="M107.907 220.847C107.224 221.529 106.613 222.255 106.082 223.019C105.552 223.774 105.074 224.551 104.65 225.348C104.224 226.144 103.854 226.96 103.511 227.787C103.172 228.616 102.868 229.457 102.545 230.308C102.579 229.419 102.719 228.534 102.963 227.666C103.208 226.794 103.548 225.942 103.981 225.118C104.422 224.295 104.966 223.51 105.605 222.775C106.232 222.033 107.01 221.382 107.907 220.847Z" fill="#8B9D36"/>
<path d="M111.42 234.245C112.538 234.447 113.592 234.831 114.517 235.374C115.442 235.918 116.217 236.608 116.794 237.402C117.18 237.927 117.454 238.501 117.605 239.099C116.832 238.11 115.916 237.197 114.877 236.379C113.822 235.572 112.663 234.856 111.42 234.245Z" fill="#8B9D36"/>
<path d="M467.221 279.475L468.556 290.158L445.423 299.223H480.945V279.475H467.221Z" fill="#F9977A"/>
<path d="M429.097 279.475L430.432 290.158L407.299 299.223H442.821V279.475H429.097Z" fill="#F9977A"/>
<path d="M465.359 284.957H481.006C481.425 284.957 481.84 284.891 482.227 284.762C482.614 284.634 482.965 284.445 483.262 284.208C483.558 283.97 483.793 283.688 483.953 283.378C484.113 283.067 484.196 282.735 484.196 282.399V237.776C484.196 229.056 482.973 220.364 480.551 211.864C480.116 210.34 479.943 208.776 480.036 207.214C480.718 195.724 483.266 145.332 476.123 136.166L430.432 133.46L462.215 282.829C462.341 283.424 462.727 283.965 463.302 284.354C463.878 284.744 464.606 284.957 465.359 284.957Z" fill="#C67A56"/>
<path d="M415.554 131.561C415.554 131.561 413.152 162.748 413.152 170.081V213.348C413.152 215.129 413.261 216.908 413.48 218.683L421.48 283.746C421.558 284.378 421.926 284.965 422.512 285.391C423.099 285.817 423.863 286.054 424.655 286.054H443.091C443.529 286.054 443.963 285.981 444.365 285.841C444.767 285.7 445.128 285.495 445.427 285.237C445.726 284.98 445.955 284.676 446.1 284.344C446.246 284.012 446.304 283.66 446.273 283.31L441.291 228.379C440.833 223.331 441.257 218.257 442.549 213.303L462.668 136.166L415.554 131.561Z" fill="#C67A56"/>
<path d="M380.147 82.3323C380.147 82.3323 379.979 78.8128 373.231 73.2403C366.483 67.6679 360.431 63.8594 363.945 68.5549L366.696 72.0974C366.696 72.0974 359.435 69.8393 355.257 68.1902C354.157 67.7387 352.906 67.5825 351.687 67.7443C350.468 67.9062 349.347 68.3776 348.487 69.0893C346.913 70.4512 346.96 71.94 351.303 74.5818C355.308 77.1389 359.737 79.2378 364.462 80.8185C365.14 81.0277 365.712 81.4113 366.089 81.9092L370.943 85.0779L380.147 82.3323Z" fill="#F9977A"/>
<path d="M370.943 73.7421C370.17 73.5976 369.422 73.3792 368.714 73.0917C368.001 72.8163 367.325 72.4831 366.696 72.0974C367.098 72.1296 367.493 72.1995 367.874 72.3054C368.252 72.4037 368.62 72.5238 368.975 72.6647C369.696 72.9405 370.36 73.3039 370.943 73.7421Z" fill="#DD765E"/>
<path d="M360.913 72.6638C359.992 72.415 359.091 72.1226 358.213 71.7881C357.328 71.466 356.471 71.0994 355.628 70.712C354.783 70.3238 353.968 69.8956 353.187 69.4299C352.395 68.9723 351.667 68.4465 351.018 67.862C352.611 68.7534 354.258 69.5271 355.925 70.3005C357.585 71.0822 359.267 71.8317 360.913 72.6638Z" fill="#DD765E"/>
<path d="M359.111 74.4573C358.085 74.2281 357.08 73.9438 356.101 73.6061C355.117 73.2764 354.159 72.9 353.23 72.479C352.293 72.0621 351.404 71.5789 350.574 71.035C349.713 70.5138 349.001 69.8502 348.487 69.0892C349.171 69.729 349.967 70.2861 350.85 70.7433C351.716 71.2121 352.603 71.6586 353.523 72.0652C355.347 72.9024 357.232 73.656 359.111 74.4573Z" fill="#DD765E"/>
<path d="M356.936 75.8023C356.072 75.6287 355.225 75.4017 354.404 75.1232C353.579 74.8518 352.775 74.5419 351.996 74.1952C350.417 73.5185 348.992 72.6322 347.781 71.574C348.528 71.9672 349.256 72.3585 350.007 72.7236C350.766 73.0786 351.514 73.4426 352.285 73.7797L356.936 75.8023Z" fill="#DD765E"/>
<path d="M432.798 64.4584C432.798 64.4584 429.141 65.7693 426.308 66.9345C422.38 68.5497 416.28 74.2256 409.141 88.4018L404.397 97.8225C404.397 97.8225 390.157 84.4909 377.838 76.0358L365.679 83.9487L393.822 109.948C395.642 112.036 398.06 113.744 400.873 114.928C407.298 117.562 413.86 116.694 417.462 111.338C423.096 102.96 429.795 90.2043 430.436 86.65L432.798 64.4584Z" fill="#FFBA55"/>
<path d="M404.442 97.991C404.248 99.4808 403.934 100.883 403.862 102.286C403.801 102.978 403.823 103.673 403.928 104.361C404.046 105.066 404.302 105.751 404.685 106.392C403.912 105.923 403.346 105.267 403.069 104.522C402.783 103.784 402.67 103.01 402.734 102.24C402.785 101.484 402.958 100.738 403.248 100.018C403.517 99.2982 403.919 98.6148 404.442 97.991Z" fill="#E6952A"/>
<path d="M459.094 142.211C459.094 142.211 459.094 157.631 480.309 153.596L479.136 139.715L459.094 142.211Z" fill="#A3862B"/>
<path d="M403.734 300.194V300.129C403.734 299.629 403.907 299.14 404.233 298.714C404.56 298.289 405.028 297.945 405.584 297.72L429.594 288.015C429.829 287.92 430.098 287.894 430.354 287.942C430.61 287.99 430.837 288.109 430.995 288.278L435.689 293.287C435.855 293.465 436.098 293.587 436.37 293.63C436.642 293.672 436.924 293.633 437.162 293.518L442.671 290.868C442.841 290.786 443.035 290.741 443.233 290.739C443.432 290.737 443.627 290.778 443.8 290.856C443.973 290.934 444.116 291.048 444.216 291.186C444.316 291.323 444.369 291.48 444.369 291.639V300.194C444.369 300.433 444.251 300.661 444.04 300.83C443.83 300.999 443.545 301.093 443.247 301.093H404.855C404.558 301.093 404.273 300.999 404.062 300.83C403.852 300.661 403.734 300.433 403.734 300.194Z" fill="#5D1115"/>
<path d="M441.857 300.194V300.129C441.857 299.629 442.03 299.14 442.357 298.714C442.683 298.289 443.151 297.945 443.707 297.72L467.717 288.015C467.952 287.92 468.221 287.894 468.477 287.942C468.734 287.99 468.96 288.109 469.118 288.278L473.812 293.287C473.978 293.465 474.221 293.587 474.493 293.63C474.765 293.672 475.047 293.633 475.285 293.518L480.794 290.868C480.964 290.786 481.158 290.741 481.356 290.739C481.555 290.737 481.75 290.778 481.923 290.856C482.096 290.934 482.239 291.048 482.339 291.186C482.439 291.323 482.492 291.48 482.492 291.639V300.194C482.492 300.433 482.374 300.661 482.163 300.83C481.953 300.999 481.668 301.093 481.371 301.093H442.978C442.681 301.093 442.396 300.999 442.185 300.83C441.975 300.661 441.857 300.433 441.857 300.194Z" fill="#5D1115"/>
<path d="M447.326 28.0864C444.082 27.6904 440.768 27.9182 437.656 28.7512C436.198 29.1659 430.863 30.6828 428.263 34.7336C427.275 36.272 427.052 38.1226 426.605 41.8239C426.326 44.1358 425.216 45.7916 425.218 48.6113C425.276 50.8959 425.743 53.1619 426.605 55.3398C427.898 58.7485 427.066 60.6851 427.71 61.3222C430.309 63.8902 435.88 61.5164 435.998 64.8673C436.072 66.9364 434.432 68.2461 436.586 70.102C439.256 72.4034 449.4 71.5325 453.127 69.9635C453.635 69.7497 461.09 66.5328 460.586 62.8732C460.317 60.9182 458.036 60.716 456.442 57.7771C455.422 55.7396 455.135 53.5133 455.614 51.3515C456.332 47.0736 459.02 46.5519 461.139 41.3807C461.714 40.0824 461.863 38.6875 461.573 37.3296C461.283 35.9716 460.563 34.6963 459.481 33.6257C456.365 30.6932 452.062 28.7325 447.326 28.0864Z" fill="#F9977A"/>
<path d="M426.584 46.1669C427.182 46.1669 427.667 45.6833 427.667 45.0867C427.667 44.4901 427.182 44.0065 426.584 44.0065C425.986 44.0065 425.501 44.4901 425.501 45.0867C425.501 45.6833 425.986 46.1669 426.584 46.1669Z" fill="#0A0709"/>
<path d="M437.936 46.5323C438.534 46.5323 439.019 46.0487 439.019 45.4522C439.019 44.8556 438.534 44.372 437.936 44.372C437.337 44.372 436.853 44.8556 436.853 45.4522C436.853 46.0487 437.337 46.5323 437.936 46.5323Z" fill="#0A0709"/>
<path d="M431.706 43.0901C431.851 43.0902 431.991 43.0536 432.108 42.9858C432.225 42.9179 432.312 42.8221 432.356 42.7122C432.401 42.6022 432.401 42.4837 432.357 42.3737C432.313 42.2636 432.226 42.1676 432.11 42.0993C430.955 41.4042 429.568 41.0009 428.126 40.9412C426.685 40.8814 425.253 41.1678 424.015 41.7638C423.865 41.8447 423.76 41.9703 423.725 42.1129C423.69 42.2556 423.727 42.4036 423.827 42.5244C423.928 42.6453 424.085 42.729 424.263 42.7573C424.441 42.7855 424.625 42.756 424.776 42.6751C425.776 42.1927 426.934 41.9641 428.099 42.0193C429.264 42.0746 430.381 42.411 431.304 42.9845C431.42 43.0533 431.561 43.0903 431.706 43.0901Z" fill="#1E1D22"/>
<path d="M442.942 43.5369C443.086 43.537 443.227 43.5005 443.344 43.4326C443.46 43.3647 443.547 43.2689 443.592 43.159C443.637 43.049 443.637 42.9306 443.593 42.8205C443.549 42.7104 443.462 42.6144 443.346 42.5461C442.191 41.851 440.804 41.4477 439.363 41.3879C437.921 41.328 436.489 41.6144 435.252 42.2103C435.101 42.2912 434.996 42.4167 434.961 42.5594C434.926 42.702 434.963 42.85 435.064 42.9709C435.165 43.0917 435.321 43.1755 435.499 43.2037C435.677 43.232 435.861 43.2024 436.012 43.1215C437.012 42.6389 438.171 42.4102 439.336 42.4655C440.501 42.5208 441.617 42.8575 442.539 43.4313C442.656 43.5001 442.797 43.5371 442.942 43.5369Z" fill="#1E1D22"/>
<path d="M434.102 140.439C435.099 140.439 435.907 139.791 435.907 138.992C435.907 138.192 435.099 137.544 434.102 137.544C433.106 137.544 432.298 138.192 432.298 138.992C432.298 139.791 433.106 140.439 434.102 140.439Z" fill="#5D1115"/>
<path d="M431.535 43.7414C431.817 44.6506 431.722 45.6089 431.263 46.4706C430.852 47.3386 430.292 48.1561 429.598 48.8994C429.244 49.2731 428.727 49.5526 428.762 49.9199C428.822 50.3317 429.084 50.7074 429.489 50.9645C429.943 51.2194 430.454 51.4001 430.994 51.4962C431.535 51.5923 432.093 51.6019 432.638 51.5245C432.08 51.674 431.488 51.7208 430.904 51.6614C430.321 51.6021 429.761 51.4382 429.267 51.1819C429.01 51.0379 428.794 50.8508 428.635 50.6336C428.476 50.4163 428.378 50.174 428.347 49.9234C428.344 49.6527 428.469 49.391 428.698 49.1918L429.245 48.6692C429.927 47.9577 430.498 47.1813 430.944 46.3577C431.438 45.546 431.642 44.6406 431.535 43.7414Z" fill="#DD765E"/>
<path d="M451.542 44.1069C451.957 44.0913 452.371 44.1487 452.755 44.2752C453.139 44.4016 453.484 44.5939 453.766 44.8387C454.05 45.0757 454.298 45.34 454.502 45.6254C454.699 45.9101 454.846 46.2153 454.938 46.5323C454.484 46.0264 453.985 45.5473 453.446 45.0986C453.186 44.8795 452.895 44.6848 452.58 44.5182C452.26 44.3425 451.911 44.2041 451.542 44.1069Z" fill="#DD765E"/>
<path d="M452.422 48.6114C452.003 47.9787 451.856 47.2527 452.004 46.5461C452.152 45.8395 452.586 45.1918 453.24 44.7037C453.068 45.0286 452.876 45.3272 452.751 45.6471C452.607 45.9567 452.506 46.278 452.45 46.6054C452.315 47.2691 452.305 47.9454 452.422 48.6114Z" fill="#DD765E"/>
<path d="M415.057 115.157C414.634 111.94 414.514 108.701 414.697 105.469C414.805 102.23 415.311 99.0078 416.208 95.8487C416.122 99.0886 415.978 102.289 415.826 105.506C415.65 108.719 415.479 111.932 415.057 115.157Z" fill="#E6952A"/>
<path d="M437.148 55.3419C437.148 55.3419 432.882 58.5326 429.068 55.3419H437.148Z" fill="#0A0709"/>
<path d="M441.431 45.3197C440.495 44.9444 439.489 44.6933 438.452 44.5764C437.944 44.5098 437.427 44.4961 436.914 44.5354C436.389 44.5703 435.867 44.638 435.355 44.738C435.817 44.504 436.33 44.3409 436.866 44.257C437.408 44.1713 437.965 44.157 438.513 44.2147C439.606 44.3289 440.627 44.7154 441.431 45.3197Z" fill="#1E1D22"/>
<path d="M430.275 44.9543C429.339 44.5788 428.332 44.3278 427.296 44.2109C426.787 44.1444 426.27 44.1306 425.758 44.17C425.232 44.2048 424.711 44.2725 424.199 44.3725C424.661 44.1386 425.173 43.9755 425.71 43.8915C426.252 43.8057 426.808 43.7915 427.356 43.8492C428.45 43.9635 429.47 44.35 430.275 44.9543Z" fill="#1E1D22"/>
<path d="M414.963 135.937C417.192 137.089 419.6 138.001 422.125 138.65C424.624 139.339 427.179 139.891 429.771 140.303C434.953 141.153 440.219 141.635 445.506 141.745C448.145 141.905 450.796 141.823 453.443 141.854C456.09 141.813 458.735 141.671 461.385 141.609C464.027 141.439 466.676 141.299 469.319 141.104C471.96 140.884 474.597 140.633 477.25 140.439C474.637 140.836 472.01 141.175 469.386 141.545C466.748 141.831 464.098 142.049 461.45 142.304C458.795 142.477 456.13 142.595 453.465 142.679C450.798 142.675 448.127 142.788 445.459 142.649C440.112 142.504 434.795 141.945 429.582 140.981C424.425 139.953 419.194 138.577 414.963 135.937Z" fill="#5D1115"/>
<path d="M432.113 141.061C433.436 146.192 434.637 151.341 435.819 156.491C437.004 161.642 438.089 166.806 439.229 171.962C440.279 177.131 441.376 182.293 442.381 187.468L443.865 195.234C444.319 197.828 444.812 200.417 445.232 203.015C444.559 200.451 443.958 197.877 443.319 195.308L441.523 187.585C440.341 182.434 439.253 177.271 438.116 172.114C437.069 166.945 435.967 161.783 434.966 156.607C433.962 151.432 432.976 146.255 432.113 141.061Z" fill="#5D1115"/>
<path d="M422.984 134.65C423.379 135.581 423.57 136.561 423.549 137.544C423.573 138.528 423.381 139.508 422.984 140.439C422.586 139.508 422.395 138.528 422.419 137.544C422.398 136.561 422.589 135.581 422.984 134.65Z" fill="#5D1115"/>
<path d="M450.563 137.01C451.116 138.048 451.47 139.148 451.614 140.272C451.804 141.391 451.78 142.527 451.542 143.64C450.987 142.602 450.633 141.502 450.492 140.378C450.304 139.259 450.328 138.123 450.563 137.01Z" fill="#5D1115"/>
<path d="M436.295 141.597C437.042 143.63 437.649 145.695 438.116 147.781C438.593 149.86 438.986 151.95 439.271 154.054L439.3 154.269L439.114 154.369C437.883 155.028 436.626 155.659 435.329 156.247C436.391 155.409 437.493 154.613 438.622 153.846L438.465 154.161C437.893 152.095 437.428 150.014 437.047 147.923C436.654 145.827 436.403 143.715 436.295 141.597Z" fill="#5D1115"/>
<path d="M477.25 175C477.203 176.533 476.964 178.059 476.538 179.555C476.133 181.061 475.556 182.535 474.813 183.956C474.075 185.391 473.109 186.744 471.939 187.981C470.769 189.219 469.276 190.237 467.563 190.964C468.976 189.978 470.208 188.835 471.22 187.571C472.212 186.31 473.066 184.982 473.773 183.603C474.5 182.22 475.139 180.808 475.689 179.373C476.238 177.933 476.782 176.481 477.25 175Z" fill="#5D1115"/>
<path d="M477.25 185.526C476.933 186.604 476.463 187.65 475.848 188.642C475.245 189.641 474.537 190.597 473.733 191.5C472.158 193.344 470.038 194.847 467.563 195.876C468.535 195.084 469.48 194.326 470.348 193.504C471.203 192.677 472.052 191.852 472.817 190.97C474.39 189.229 475.797 187.401 477.25 185.526Z" fill="#5D1115"/>
<path d="M435.966 227.499C435.919 229.032 435.68 230.558 435.254 232.054C434.849 233.56 434.272 235.034 433.53 236.455C432.791 237.89 431.825 239.243 430.656 240.48C429.485 241.718 427.992 242.736 426.28 243.463C427.693 242.476 428.924 241.334 429.937 240.07C430.928 238.809 431.782 237.481 432.489 236.102C433.216 234.719 433.856 233.307 434.405 231.872C434.955 230.432 435.498 228.98 435.966 227.499Z" fill="#5D1115"/>
<path d="M435.966 238.025C435.649 239.103 435.179 240.149 434.564 241.141C433.961 242.14 433.254 243.096 432.45 243.999C430.874 245.843 428.755 247.346 426.28 248.375C427.251 247.583 428.196 246.825 429.064 246.003C429.919 245.176 430.768 244.35 431.533 243.469C433.106 241.728 434.513 239.899 435.966 238.025Z" fill="#5D1115"/>
<path d="M455.31 154.108C455.047 155.887 455.026 157.683 455.248 159.466C455.364 161.182 456.197 162.817 457.613 164.107C459.072 165.296 461.329 165.565 463.481 165.46C465.701 165.284 467.892 164.918 470.015 164.366C468.012 165.259 465.832 165.867 463.57 166.164C462.399 166.304 461.207 166.285 460.044 166.105C458.835 165.908 457.72 165.441 456.827 164.758C455.219 163.322 454.343 161.453 454.372 159.522C454.293 157.687 454.61 155.855 455.31 154.108Z" fill="#5D1115"/>
<path d="M437.725 65.1479C437.725 65.1479 440.295 75.5802 458.529 60.2917L476.122 69.0218C480.104 71.053 483.298 73.9376 485.342 77.3491C492.296 89.1511 496.365 101.912 497.33 114.943C497.33 114.943 499.816 128.074 475.505 153.969C475.505 153.969 462.796 155.934 459.757 145.077L467.563 136.435C467.563 136.435 426.329 139.537 415.554 131.561C415.554 131.561 409.914 75.0272 433.788 63.7596L437.725 65.1479Z" fill="#FFBA55"/>
<path d="M468.322 89.0187C468.807 91.4805 469.257 93.9454 469.672 96.4134C470.071 98.8827 470.51 101.348 470.878 103.821L471.977 111.238C472.36 113.708 472.642 116.188 472.979 118.663L472.984 118.704L472.981 118.738C472.66 121.785 472.078 124.81 471.239 127.793C470.478 130.787 469.243 133.692 467.563 136.435C468.92 133.604 469.915 130.67 470.534 127.678C470.87 126.189 471.137 124.69 471.364 123.188C471.61 121.69 471.818 120.179 471.951 118.681L471.953 118.756C471.6 116.282 471.191 113.813 470.883 111.336L469.91 103.908C469.587 101.431 469.335 98.9486 469.044 96.4696C468.771 93.989 468.531 91.5054 468.322 89.0187Z" fill="#E6952A"/>
<path d="M463.977 91.4562C465.205 92.2771 466.292 93.2254 467.208 94.2763C468.164 95.3048 468.943 96.4316 469.523 97.6267C468.293 96.8072 467.206 95.8585 466.292 94.8063C465.338 93.7769 464.56 92.6503 463.977 91.4562Z" fill="#E6952A"/>
<path d="M472.466 118.71C473.726 118.699 474.844 118.803 475.964 118.839C476.521 118.864 477.068 118.86 477.628 118.855C478.185 118.83 478.736 118.781 479.373 118.71C478.956 119.104 478.408 119.395 477.794 119.55C477.184 119.7 476.548 119.765 475.912 119.744C475.288 119.716 474.673 119.616 474.084 119.448C473.49 119.289 472.94 119.038 472.466 118.71Z" fill="#E6952A"/>
<path d="M441.636 68.4462C440.51 71.1683 439.43 73.8994 438.477 76.6605C437.474 79.4089 436.55 82.1738 435.703 84.9552C433.998 90.5125 432.507 96.1104 431.391 101.758C430.251 107.402 429.502 113.092 429.149 118.802C429.088 121.658 428.922 124.519 429.156 127.375C429.144 130.243 429.687 133.074 429.979 135.937C428.715 130.277 428.146 124.53 428.28 118.781C428.502 113.031 429.169 107.298 430.276 101.615C431.491 95.9492 432.973 90.3206 434.866 84.7799C436.722 79.2339 438.983 73.78 441.636 68.4462Z" fill="#E6952A"/>
<path d="M433.788 63.7597C433.368 65.2727 432.986 66.7915 432.739 68.3209C432.415 69.815 432.393 71.3412 432.674 72.8409C432.876 73.565 433.399 74.0692 434.187 73.8901C435.037 73.6807 435.825 73.3326 436.499 72.8677C437.96 71.8919 439.316 70.8201 440.554 69.6632L441.385 68.9181L441.477 69.9324C441.547 70.9733 441.884 71.9914 442.468 72.9228C442.717 73.3615 443.101 73.7425 443.583 74.0306C444.065 74.3187 444.63 74.5044 445.225 74.5706C446.508 74.6043 447.778 74.3549 448.897 73.8496C450.096 73.359 451.23 72.7712 452.281 72.0956C456.517 69.2924 460.432 66.1898 463.976 62.8251C462.336 64.6035 460.648 66.3603 458.811 68.0207C456.986 69.7022 455.001 71.2678 452.874 72.7034C451.784 73.4241 450.606 74.0535 449.357 74.5819C448.069 75.1772 446.6 75.4726 445.114 75.4348C444.336 75.3642 443.594 75.1349 442.958 74.7688C442.322 74.4027 441.814 73.9121 441.481 73.3436C440.835 72.2875 440.474 71.1342 440.421 69.9587L441.343 70.2279C440.042 71.4079 438.62 72.4981 437.091 73.487C436.291 74.0281 435.34 74.4069 434.319 74.5914C434.017 74.6412 433.704 74.6289 433.41 74.5557C433.115 74.4826 432.849 74.351 432.635 74.173C432.263 73.8371 432.021 73.4221 431.937 72.9781C431.772 72.186 431.743 71.3793 431.853 70.581C431.938 69.8011 432.081 69.026 432.284 68.2602C432.67 66.7368 433.173 65.2338 433.788 63.7597Z" fill="#E6952A"/>
<path d="M437.069 88.0211C437.707 88.0211 438.224 87.6065 438.224 87.0951C438.224 86.5837 437.707 86.1691 437.069 86.1691C436.431 86.1691 435.915 86.5837 435.915 87.0951C435.915 87.6065 436.431 88.0211 437.069 88.0211Z" fill="#5D1115"/>
<path d="M440.533 77.2697C441.171 77.2697 441.688 76.8552 441.688 76.3437C441.688 75.8323 441.171 75.4177 440.533 75.4177C439.895 75.4177 439.378 75.8323 439.378 76.3437C439.378 76.8552 439.895 77.2697 440.533 77.2697Z" fill="#5D1115"/>
<path d="M434.191 100.626C434.829 100.626 435.346 100.212 435.346 99.7004C435.346 99.189 434.829 98.7744 434.191 98.7744C433.554 98.7744 433.037 99.189 433.037 99.7004C433.037 100.212 433.554 100.626 434.191 100.626Z" fill="#5D1115"/>
<path d="M431.827 113.928C432.465 113.928 432.982 113.514 432.982 113.002C432.982 112.491 432.465 112.076 431.827 112.076C431.189 112.076 430.672 112.491 430.672 113.002C430.672 113.514 431.189 113.928 431.827 113.928Z" fill="#5D1115"/>
<path d="M431.102 128.494C431.74 128.494 432.257 128.079 432.257 127.568C432.257 127.056 431.74 126.642 431.102 126.642C430.465 126.642 429.948 127.056 429.948 127.568C429.948 128.079 430.465 128.494 431.102 128.494Z" fill="#5D1115"/>
<path d="M435.292 64.7049C435.292 64.7049 442.939 64.8185 447.31 59.9438C449.395 57.6199 449.4 52.9183 449.196 50.1833C449.102 48.9575 449.343 47.73 449.901 46.5862C450.673 45.0057 451.622 42.8522 453.549 42.7089C454.97 42.6033 455.54 42.3025 456.052 43.4019C456.897 45.2206 455.428 47.2268 454.406 48.6242C452.943 50.6237 451.7 51.0602 451.677 52.4436C451.66 53.4989 453.768 55.2548 454.64 55.3321C456.117 55.4629 456.785 51.8705 460.745 45.8787C463.246 42.0951 464.396 41.3853 464.685 39.0234C464.788 38.1848 465.213 34.7128 462.608 32.6935C461.4 31.7569 460.712 32.0422 455.457 30.2576C453.998 29.7934 452.572 29.2659 451.184 28.6776C446.999 26.8439 447.092 25.9006 444.642 25.3422C442.43 24.8378 442.299 25.5955 438.074 25.3948C434 25.2015 433.639 24.4741 431.756 24.9048C428.486 25.6525 426.916 28.4533 426.494 29.2058C425.652 30.5085 425.219 31.9562 425.233 33.4234C425.412 34.912 426.1 36.3321 427.219 37.528C427.75 37.9618 429.904 35.4608 431.078 34.5199C432.229 33.5981 433.536 33.9755 435.317 34.0644C437.054 34.151 436.959 35.0186 439.529 35.7804C440.444 36.0518 444.112 34.7338 445.296 36.362C446.558 38.0968 447.538 38.3069 446.946 39.9212C446.576 40.9296 446.805 42.1687 447.263 44.6468C447.591 46.4252 445.797 52.6371 445.797 52.6371C445.64 52.8948 445.42 53.1249 445.151 53.3142C444.882 53.5035 444.569 53.6482 444.23 53.7398C443.891 53.8315 443.532 53.8684 443.175 53.8484C442.818 53.8283 442.47 53.7518 442.15 53.6231C440.206 52.8205 438.197 52.124 436.136 51.5383C434.905 51.202 433.597 51.0891 432.305 51.2075C431.013 51.326 429.77 51.6729 428.665 52.2233C427.898 52.5996 427.109 53.021 426.485 53.4012C426.07 53.6539 425.739 53.9846 425.522 54.3642C425.304 54.7437 425.206 55.1603 425.237 55.5774C425.464 58.2434 426.843 64.7645 435.292 64.7049ZM428.027 55.4424C428.341 54.1725 430.703 53.6786 432.052 53.3979C433.119 53.0957 434.276 53.0628 435.368 53.3037C435.627 53.368 437.974 54.0148 438.187 55.5317C438.4 57.0488 436.29 58.1066 435.96 58.2655C435.17 58.646 434.273 58.858 433.352 58.8814C432.432 58.9049 431.519 58.7389 430.701 58.3994C429.49 57.8974 427.719 56.6629 428.027 55.4424Z" fill="#1E1D22"/>
<path d="M91.8063 75.8261H69.0065C68.7067 75.8261 68.4191 75.7306 68.2071 75.5606C67.9951 75.3905 67.876 75.1599 67.876 74.9194V51.8203C67.876 51.5798 67.9951 51.3492 68.2071 51.1791C68.4191 51.0091 68.7067 50.9136 69.0065 50.9136H100.613C100.913 50.9136 101.2 51.0091 101.412 51.1791C101.624 51.3492 101.744 51.5798 101.744 51.8203V68.6273L91.8063 75.8261Z" fill="#FFE3CB"/>
<path d="M101.743 68.6555H91.8066V75.8257L101.743 68.6555Z" fill="#FECA9C"/>
<path d="M89.3193 48.5809H79.1671C78.5428 48.5809 78.0366 48.9868 78.0366 49.4876V52.5704C78.0366 53.0712 78.5428 53.4771 79.1671 53.4771H89.3193C89.9437 53.4771 90.4498 53.0712 90.4498 52.5704V49.4876C90.4498 48.9868 89.9437 48.5809 89.3193 48.5809Z" fill="#FECA9C"/>
<path d="M92.711 59.3886H76.8384V60.2953H92.711V59.3886Z" fill="#FECA9C"/>
<path d="M92.711 64.8288H76.8384V65.7355H92.711V64.8288Z" fill="#FECA9C"/>
<path d="M31.3021 217.841C34.0286 219.54 38.8322 223.575 38.9618 226.601C38.9618 226.601 47.7899 218.902 45.28 212.319C43.7932 209.858 41.3263 207.865 38.2694 206.655C38.2694 206.655 41.7312 205.098 45.3663 208.921C45.3663 208.921 44.0682 198.585 26.1094 202.337C26.1094 202.337 19.0988 190.868 5.20792 201.7C5.20792 201.7 14.5551 200.744 12.7376 203.08C9.35378 203.843 6.18667 205.125 3.41188 206.856C2.4812 207.517 1.72432 208.32 1.18558 209.219C0.646838 210.117 0.337066 211.093 0.274404 212.089C0.0581794 214.885 -0.273563 220.419 0.404415 220.495C1.31301 220.601 7.28506 216.248 11.3096 216.566C15.3342 216.885 2.092 226.442 2.092 226.442C2.092 226.442 4.81848 234.725 5.98698 234.619C7.15512 234.512 11.3963 232.141 9.66502 234.619L6.67929 236.53L10.574 240.848L20.354 237.379C20.354 237.379 16.0266 227.893 20.0078 230.477C20.0078 230.477 23.0368 233.698 23.0801 236.105C23.0801 236.105 36.1705 231.539 34.8725 228.406C33.4591 225.5 31.8062 222.672 29.9249 219.941C29.6094 219.479 29.4247 218.968 29.3839 218.442C29.3406 217.646 29.6001 216.779 31.3021 217.841ZM29.6938 206.844C30.92 206.166 33.9349 206.602 35.0672 208.814C36.279 211.18 36.2282 213.817 35.0024 214.495C33.7761 215.174 30.2925 214.289 29.4198 212C28.4534 209.452 28.4678 207.522 29.6938 206.844Z" fill="#8B9D36"/>
<path d="M26.1092 202.337C24.7132 203.611 23.4225 204.957 22.2456 206.366C21.1329 207.798 20.2149 209.323 19.5076 210.912C18.8058 212.507 18.2039 214.128 17.7042 215.771C17.1819 217.417 16.683 219.062 16.267 220.723C15.8263 222.379 15.4412 224.047 15.1259 225.72C14.8011 227.395 14.6143 229.079 14.3578 230.772C13.8602 234.173 12.5955 237.472 10.6255 240.51C11.4652 238.953 12.1582 237.347 12.6986 235.706C13.259 234.077 13.628 232.409 13.8007 230.724C14.1123 227.324 14.6982 223.943 15.5548 220.604C15.9951 218.935 16.5197 217.28 17.0638 215.637C17.5762 213.978 18.2184 212.347 18.9868 210.752C19.7666 209.156 20.7603 207.632 21.9504 206.207C23.2126 204.835 24.6028 203.541 26.1092 202.337Z" fill="#5E7C24"/>
<path d="M21.0113 207.733C19.5831 207.975 18.1787 208.299 16.8091 208.703C15.4434 209.102 14.0934 209.533 12.7833 210.039C10.1264 210.99 7.60629 212.16 5.03467 213.31C5.59615 212.928 6.18224 212.571 6.76352 212.206C7.37205 211.875 7.97126 211.529 8.59421 211.212C9.84693 210.584 11.1443 210.015 12.4796 209.508C13.8291 209.021 15.2194 208.609 16.6404 208.277C18.0602 207.939 19.5304 207.756 21.0113 207.733Z" fill="#5E7C24"/>
<path d="M15.0944 224.156C14.0886 224.781 13.0416 225.293 12.0191 225.828C11.5067 226.091 11.0063 226.364 10.5178 226.645C10.014 226.913 9.5898 227.267 9.27539 227.681C9.3444 227.153 9.6513 226.664 10.1384 226.305C10.5879 225.94 11.086 225.616 11.6237 225.338C12.6843 224.782 13.8595 224.382 15.0944 224.156Z" fill="#5E7C24"/>
<path d="M17.0996 216.592C18.2849 217.483 19.3903 218.439 20.4078 219.454C21.433 220.467 22.3836 221.528 23.2549 222.63C24.1214 223.741 24.8651 224.91 25.4773 226.125C26.109 227.337 26.4553 228.633 26.4987 229.946C26.1829 228.684 25.6665 227.459 24.9623 226.302C24.2851 225.139 23.5083 224.015 22.6372 222.938C21.821 221.831 20.8911 220.779 19.9639 219.725C19.0336 218.671 18.0729 217.632 17.0996 216.592Z" fill="#5E7C24"/>
<path d="M5.12109 249.768L8.75614 252.458C8.75614 252.458 12.3046 249.45 12.6941 251.538C12.6941 251.538 12.1315 253.627 11.4391 253.804C11.4391 253.804 20.1373 259.414 21.8899 254.795C22.5945 252.728 23.4839 250.706 24.5513 248.742C24.5513 248.742 26.4986 249.591 24.8109 256.281C24.8109 256.281 31.5425 254.695 34.0423 251.784C34.3294 251.441 34.4825 251.036 34.482 250.623C34.5061 248.959 34.7796 244.276 37.1441 246.034C37.1441 246.034 38.5073 246.565 37.4687 250.122C37.4687 250.122 42.9471 245.169 40.3449 242.125C39.8307 241.554 39.0859 241.144 38.2374 240.965C37.3888 240.785 36.4889 240.847 35.6907 241.14C34.1694 241.669 31.3466 242.645 26.1092 244.441C19.3665 246.804 12.3314 248.59 5.12109 249.768Z" fill="#8B9D36"/>
<path d="M17.0996 253.874C17.4364 252.344 18.0387 250.859 18.889 249.463C19.3087 248.754 19.8241 248.084 20.426 247.465C20.7327 247.151 21.0874 246.869 21.4818 246.625C21.8731 246.371 22.3609 246.231 22.8647 246.229C22.0053 246.527 21.3049 247.06 20.887 247.732C20.3932 248.374 19.9445 249.037 19.543 249.719C18.7074 251.082 17.963 252.485 17.0996 253.874Z" fill="#5E7C24"/>
<path d="M28.9221 251.68C28.8229 250.309 28.9782 248.935 29.383 247.601C29.5848 246.927 29.8695 246.272 30.2328 245.644C30.567 244.987 31.1742 244.443 31.9513 244.105C31.3894 244.592 30.9802 245.18 30.7575 245.819C30.5038 246.448 30.2858 247.089 30.0905 247.738C29.6964 249.038 29.3693 250.355 28.9221 251.68Z" fill="#5E7C24"/>
<path d="M89.4196 203.455C89.4196 203.455 80.6782 204.461 88.4676 209.416C88.4676 209.416 90.4582 210.761 96.9494 212.319C96.9494 212.319 101.017 198.13 89.4196 203.455Z" fill="#5E7C24"/>
<path d="M96.9492 212.319C96.7873 211.854 96.6813 211.389 96.5356 210.931C96.3536 210.481 96.2221 210.023 96.023 209.585C95.6485 208.707 95.1586 207.864 94.5614 207.07C93.953 206.288 93.2111 205.578 92.3575 204.961C91.4902 204.33 90.497 203.821 89.4194 203.455C90.6192 203.615 91.7511 204.011 92.7147 204.606C93.694 205.198 94.5295 205.928 95.1795 206.762C95.8069 207.599 96.2743 208.507 96.566 209.456C96.7246 209.923 96.7843 210.408 96.8848 210.88C96.9142 211.363 96.9506 211.842 96.9492 212.319Z" fill="#50661A"/>
<path d="M78.3261 174.789C78.3261 174.789 88.0173 169.837 90.92 180.832C90.92 180.832 85.8906 177.36 85.824 179.369C87.4531 180.898 88.6925 182.67 89.4722 184.582C89.924 186.007 89.6729 187.517 88.7712 188.797C87.5393 190.595 85.0503 194.127 84.6129 193.967C84.0272 193.753 82.6323 189.213 80.1123 188.171C77.5923 187.129 80.7324 197.134 80.7324 197.134C80.7324 197.134 75.1066 201.43 74.4715 201.005C73.8363 200.579 72.4949 197.803 72.3091 199.872L73.136 201.977L68.7493 203.455L64.6863 198.291C64.6863 198.291 71.8378 193.742 68.2427 194.118C68.2427 194.118 64.8977 195.182 63.703 196.661C63.703 196.661 58.2274 189.797 60.5121 188.255C62.7438 186.895 65.083 185.653 67.5151 184.536C68.0056 184.313 68.416 183.991 68.7067 183.604C69.0289 183.158 69.0917 182.684 67.743 182.803C65.3153 183.016 60.532 184.039 58.9856 185.875C58.9856 185.875 57.5369 178.382 62.2103 175.073C64.2461 174.016 66.6668 173.539 69.0816 173.721C69.0816 173.721 67.8035 171.688 63.8101 172.939C63.8101 172.939 69.5937 166.93 78.3261 174.789Z" fill="#5E7C24"/>
<path d="M82.6688 187.098C81.8778 185.552 81.1358 184.02 80.2337 182.559C79.7907 181.834 79.2659 181.144 78.6656 180.496C78.1018 179.821 77.2387 179.342 76.2515 179.158C76.7922 179.145 77.3297 179.231 77.8222 179.41C78.3147 179.59 78.749 179.858 79.0914 180.194C79.8106 180.823 80.4144 181.532 80.8845 182.297C81.8099 183.806 82.413 185.429 82.6688 187.098Z" fill="#50661A"/>
<path d="M62.7627 190.798C63.2567 189.939 63.8788 189.133 64.6152 188.395C65.3424 187.64 66.1872 186.963 67.1291 186.38C68.0755 185.779 69.1594 185.333 70.3197 185.066C71.4829 184.819 72.7112 184.851 73.8521 185.158C72.7135 185.08 71.5671 185.197 70.4892 185.501C69.4378 185.828 68.4541 186.281 67.5714 186.844C66.6652 187.401 65.8195 188.019 65.0434 188.692C64.2589 189.365 63.4878 190.059 62.7627 190.798Z" fill="#50661A"/>
<path d="M71.8504 175.789C72.2074 175.407 72.6559 175.085 73.1696 174.843C73.6833 174.601 74.2521 174.443 74.8426 174.379C75.4353 174.305 76.0374 174.292 76.6341 174.341C77.2288 174.395 77.8162 174.492 78.3893 174.631L78.6024 174.679L78.5154 174.855C77.3832 177.148 76.4214 179.504 75.4714 181.855C74.5419 184.213 73.7045 186.594 72.8847 188.978C72.0964 191.369 71.3586 193.771 70.6712 196.185C69.9798 198.597 69.3715 201.025 68.749 203.455C69.1294 200.994 69.5864 198.538 70.1854 196.103C70.7303 193.659 71.4699 191.246 72.2204 188.838C72.9775 186.429 73.8766 184.051 74.8446 181.692C75.8066 179.33 76.8846 177.003 78.1363 174.722L78.2622 174.946L77.4352 174.749C77.1538 174.706 76.874 174.65 76.591 174.612C76.0237 174.539 75.4469 174.524 74.8749 174.568C73.7077 174.646 72.6236 175.084 71.8504 175.789Z" fill="#50661A"/>
<path d="M74.8464 197.046C74.5647 196.198 74.1757 195.375 73.6855 194.591C73.4566 194.238 73.1135 193.942 72.6923 193.733C72.2055 193.558 71.674 193.479 71.1416 193.501C71.4056 193.376 71.6983 193.295 72.0022 193.262C72.3062 193.23 72.6152 193.247 72.9109 193.312C73.5126 193.492 74.0116 193.843 74.3145 194.297C74.8835 195.136 75.0715 196.108 74.8464 197.046Z" fill="#50661A"/>
<path d="M42.5105 253.874C42.5105 253.874 40.7876 249.105 36.4142 251.801C34.9275 252.749 33.8641 254.057 33.3834 255.53C32.5947 257.813 31.9129 261.95 33.8556 267.821C33.8556 267.821 38.3328 262.853 41.645 261.095C45.3804 259.113 47.79 254.582 42.5105 253.874Z" fill="#C4CE6E"/>
<path d="M42.5103 253.874C41.8526 254.264 41.2788 254.737 40.8117 255.276C40.3172 255.794 39.8696 256.34 39.4722 256.909C38.6625 258.044 37.9424 259.219 37.3163 260.426C36.6557 261.626 36.0861 262.857 35.5205 264.092L33.8555 267.821C33.9976 267.168 34.1858 266.523 34.3501 265.873C34.5402 265.228 34.7767 264.593 34.9883 263.951C35.448 262.676 36.03 261.431 36.6479 260.196C37.3121 258.972 38.0986 257.794 38.9996 256.671C39.8581 255.517 41.0655 254.555 42.5103 253.874Z" fill="#8B9D36"/>
<path d="M48.8223 187.618C48.8223 187.618 48.9682 182.645 43.7953 184.117C42.0256 184.646 40.5215 185.626 39.5138 186.908C37.9082 188.883 35.7102 192.65 35.3613 198.725C35.3613 198.725 41.4834 195.118 45.2946 194.275C49.5927 193.324 53.583 189.614 48.8223 187.618Z" fill="#8B9D36"/>
<path d="M48.8223 187.618C48.0505 187.823 47.3265 188.13 46.6797 188.526C46.0146 188.895 45.3836 189.303 44.7917 189.745C43.5954 190.623 42.4698 191.561 41.4217 192.554C40.3442 193.53 39.3412 194.559 38.3408 195.593L35.3613 198.726C35.7407 198.141 36.1608 197.575 36.5605 196.998C36.9824 196.432 37.4453 195.887 37.8867 195.33C38.8151 194.237 39.8114 193.183 40.8721 192.171C41.9629 191.172 43.1535 190.247 44.4322 189.403C45.6825 188.518 47.1935 187.904 48.8223 187.618Z" fill="#5E7C24"/>
<path d="M87.8646 253.874C87.8646 253.874 89.5874 249.105 93.9609 251.801C95.4475 252.749 96.511 254.057 96.9917 255.53C97.7804 257.813 98.4622 261.95 96.5195 267.821C96.5195 267.821 92.0423 262.853 88.7301 261.095C84.9947 259.113 82.5851 254.582 87.8646 253.874Z" fill="#8B9D36"/>
<path d="M87.8647 253.874C89.3095 254.555 90.5169 255.517 91.3754 256.671C92.2764 257.794 93.0629 258.972 93.7271 260.196C94.358 261.425 94.9119 262.678 95.3867 263.951C95.5983 264.593 95.8348 265.228 96.0248 265.873C96.1892 266.523 96.3774 267.168 96.5196 267.821L94.8545 264.092C94.2889 262.857 93.7193 261.626 93.0586 260.426C92.4325 259.219 91.7125 258.044 90.9028 256.909C90.5054 256.34 90.0577 255.794 89.5633 255.276C89.0962 254.737 88.5225 254.264 87.8647 253.874Z" fill="#5E7C24"/>
<path d="M89.4196 203.455C89.4196 203.455 67.644 188.532 62.001 275.714" stroke="#50661A" stroke-width="0.64428" stroke-miterlimit="10"/>
<path d="M68.749 203.455C68.749 203.455 57.916 260.954 64.4071 275.714" stroke="#50661A" stroke-width="0.64428" stroke-miterlimit="10"/>
<path d="M60.2771 275.714C60.2771 275.714 52.2265 249.803 42.5103 253.874" stroke="#50661A" stroke-width="0.64428" stroke-miterlimit="10"/>
<path d="M61.4339 267.987C61.4339 267.987 68.4502 171.721 48.8223 187.618" stroke="#50661A" stroke-width="0.64428" stroke-miterlimit="10"/>
<path d="M70.0981 275.714C70.0981 275.714 78.1488 249.803 87.865 253.874" stroke="#50661A" stroke-width="0.64428" stroke-miterlimit="10"/>
<path d="M39.7339 241.581C39.7339 241.581 54.9732 238.583 63.2819 275.112" stroke="#50661A" stroke-width="0.64428" stroke-miterlimit="10"/>
<path d="M44.7539 218.947C44.7539 218.947 49.1691 221.309 65.8756 275.112" stroke="#50661A" stroke-width="0.64428" stroke-miterlimit="10"/>
<path d="M86.485 231.154C86.485 231.154 69.9836 252.105 68.4502 275.714" stroke="#50661A" stroke-width="0.64428" stroke-miterlimit="10"/>
<path d="M42.5968 269.53V274.378C42.5914 274.823 42.8068 275.252 43.1957 275.57C43.5846 275.888 44.1151 276.07 44.6706 276.074H86.2206C86.7761 276.07 87.3066 275.888 87.6956 275.57C88.0845 275.252 88.2999 274.823 88.2945 274.378V269.91C88.2998 269.468 88.0875 269.042 87.7036 268.724C87.3197 268.407 86.7952 268.223 86.2439 268.214L44.6938 267.834C44.4168 267.834 44.1425 267.877 43.8867 267.963C43.6309 268.048 43.3988 268.173 43.2038 268.331C43.0087 268.489 42.8546 268.676 42.7505 268.882C42.6463 269.088 42.594 269.308 42.5968 269.53Z" fill="#D6694B"/>
<path d="M44.5801 276.074L46.0577 301.093H83.8558L86.3113 276.074H44.5801Z" fill="#E19974"/>
<path d="M79.6828 229.728C79.7406 227.445 85.626 231.586 85.626 231.586C82.1205 218.967 70.9198 224.23 70.9198 224.23C60.6781 214.956 54.0285 221.569 54.0285 221.569C58.6514 220.301 60.159 222.66 60.159 222.66C57.3991 222.349 54.5893 222.798 52.1891 223.935C46.8017 227.521 48.5688 236.099 48.5688 236.099C50.343 234.07 55.8964 233.091 58.7091 232.937C60.4763 232.843 60.1661 233.539 59.6903 234.07C59.3709 234.414 58.9593 234.696 58.4859 234.896C55.6732 236.072 52.9624 237.398 50.3719 238.866C47.7321 240.53 54.1799 248.547 54.1799 248.547C55.5502 246.913 59.4233 245.827 59.4233 245.827C63.5993 245.538 55.341 250.441 55.341 250.441L60.1227 256.47L65.2076 254.954L64.2195 252.529C64.4142 250.181 66.0011 253.391 66.7438 253.898C67.4866 254.411 73.9777 249.739 73.9777 249.739C73.9777 249.739 70.213 238.235 73.1483 239.521C76.0911 240.801 77.7642 246.016 78.4495 246.282C78.9615 246.482 81.8106 242.559 83.2242 240.559C83.7362 239.845 84.0673 239.057 84.1985 238.24C84.3297 237.423 84.2584 236.593 83.9887 235.798C83.0443 233.575 81.5832 231.515 79.6828 229.728ZM63.2602 229.634C61.3849 230.878 58.5 230.188 58.0386 229.262C57.5695 228.342 59.005 226.507 61.1542 225.339C63.1665 224.241 65.4817 225.061 65.9434 225.988C66.4121 226.908 65.3447 228.241 63.2602 229.634Z" fill="#5E7C24"/>
<path d="M70.9184 224.23C71.2917 225.605 71.5357 227 71.6486 228.405C71.6833 229.821 71.5263 231.236 71.1806 232.625C70.8283 234.007 70.3643 235.37 69.7915 236.705C69.2505 238.038 68.6903 239.374 68.0639 240.688C66.7872 243.309 65.2957 245.859 63.5994 248.321C62.7713 249.544 62.0886 250.828 61.5604 252.153C61.0092 253.481 60.5803 254.839 60.2773 256.216C60.5893 253.401 61.5461 250.655 63.0998 248.118C64.7106 245.639 66.1415 243.089 67.3855 240.478C68.0271 239.18 68.6024 237.864 69.1636 236.538C69.7291 235.215 70.2372 233.884 70.6348 232.533C71.0368 231.181 71.2577 229.798 71.2937 228.409C71.2769 227.011 71.1516 225.615 70.9184 224.23Z" fill="#50661A"/>
<path d="M71.4116 229.836C72.4373 230.39 73.3614 231.056 74.1571 231.815C74.9626 232.566 75.6927 233.367 76.3405 234.21C76.9842 235.053 77.5554 235.931 78.0501 236.836C78.5451 237.739 78.9545 238.67 79.2748 239.623L77.5399 237.037C76.9492 236.187 76.3634 235.338 75.7209 234.517C75.0896 233.691 74.4208 232.885 73.7145 232.098C73.0081 231.305 72.2389 230.55 71.4116 229.836Z" fill="#50661A"/>
<path d="M66.3223 243.32C67.082 243.912 67.6884 244.619 68.1067 245.4C68.3217 245.793 68.4793 246.205 68.5763 246.627C68.7048 247.062 68.6255 247.519 68.3538 247.91C68.3437 247.507 68.2325 247.111 68.027 246.744C67.8387 246.373 67.6449 246.004 67.4397 245.634C67.0053 244.883 66.632 244.11 66.3223 243.32Z" fill="#50661A"/>
<path d="M69.1607 237.378L65.4638 238.5C64.2431 238.884 63.0279 239.274 61.8454 239.716C60.6542 240.137 59.4958 240.615 58.3767 241.149C57.2453 241.674 56.1997 242.311 55.2642 243.043C56.0041 242.146 56.9552 241.373 58.0642 240.768C59.1558 240.149 60.3216 239.618 61.5443 239.184C63.9661 238.301 66.5295 237.693 69.1607 237.378Z" fill="#50661A"/>
<path d="M105.8 215.463C105.8 215.463 114.243 205.348 124.802 217.293C124.802 217.293 116.532 215.292 117.745 217.731C120.685 218.866 123.313 220.458 125.478 222.416C126.941 223.942 127.611 225.863 127.349 227.776C127.028 230.464 126.314 235.774 125.686 235.77C124.845 235.766 120.25 230.919 116.555 230.753C112.86 230.588 123.068 241.242 123.068 241.242C123.068 241.242 119.081 248.82 118.045 248.583C117.009 248.345 113.613 245.592 114.721 248.155L117.068 250.324L112.755 253.986L104.556 249.539C104.556 249.539 110.211 241.001 106.138 243C106.138 243 102.809 245.717 102.328 248.007C102.328 248.007 91.3396 242.128 93.0886 239.293C94.8884 236.705 96.8922 234.211 99.088 231.828C99.5304 231.352 99.8181 230.796 99.9252 230.208C100.035 229.525 99.8185 228.905 98.2572 229.637C95.4815 230.939 90.3995 234.225 89.7257 237.095C89.7257 237.095 83.165 228.727 86.6434 222.743C88.4007 220.603 90.9951 218.991 94.0189 218.162C94.0189 218.162 91.1773 216.274 87.19 219.494C87.19 219.494 90.2635 209.792 105.8 215.463Z" fill="#C4CE6E"/>
<path d="M105.8 215.463C107.276 218.51 108.496 221.632 109.452 224.809C110.442 227.98 111.209 231.196 111.809 234.43C112.392 237.667 112.77 240.925 112.941 244.193C113.117 247.458 113.055 250.728 112.755 253.987C112.723 250.722 112.703 247.465 112.381 244.217C112.125 240.969 111.694 237.735 111.089 234.514C110.552 231.288 109.778 228.091 108.909 224.912C108.034 221.733 107.025 218.575 105.8 215.463Z" fill="#8B9D36"/>
<path d="M107.907 220.847C107.224 221.529 106.613 222.255 106.082 223.019C105.552 223.774 105.074 224.551 104.65 225.348C104.224 226.144 103.854 226.96 103.511 227.787C103.172 228.616 102.868 229.457 102.545 230.308C102.579 229.419 102.719 228.534 102.963 227.666C103.208 226.794 103.548 225.942 103.981 225.118C104.422 224.295 104.966 223.51 105.605 222.775C106.232 222.033 107.01 221.382 107.907 220.847Z" fill="#8B9D36"/>
<path d="M111.42 234.245C112.538 234.447 113.592 234.831 114.517 235.374C115.442 235.918 116.217 236.608 116.794 237.402C117.18 237.927 117.454 238.501 117.605 239.099C116.832 238.11 115.916 237.197 114.877 236.379C113.822 235.572 112.663 234.856 111.42 234.245Z" fill="#8B9D36"/>
<path d="M544.896 302H33.8966C33.5968 302 33.3093 301.905 33.0972 301.734C32.8852 301.564 32.7661 301.334 32.7661 301.093C32.7661 300.853 32.8852 300.622 33.0972 300.452C33.3093 300.282 33.5968 300.187 33.8966 300.187H544.896C545.195 300.187 545.483 300.282 545.695 300.452C545.907 300.622 546.026 300.853 546.026 301.093C546.026 301.334 545.907 301.564 545.695 301.734C545.483 301.905 545.195 302 544.896 302Z" fill="#935B50"/>
</g>
<defs>
<clipPath id="clip0_20_264">
<rect width="566" height="302" fill="white"/>
</clipPath>
</defs>
</svg>
